PathFileType	4	(X/Y/Z)	Walk1_0-155.trc
DataRate	CameraRate	NumFrames	NumMarkers	Units	OrigDataRate	OrigDataStartFrame	OrigNumFrames
30	30	6	22	m	30	38	155
Frame#	Time	Hip			RHip			RKnee			RAnkle			RBigToe			RSmallToe			RHeel			LHip			LKnee			LAnkle			LBigToe			LSmallToe			LHeel			Neck			Head			Nose			RShoulder			RElbow			RWrist			LShoulder			LElbow			LWrist		
		X1	Y1	Z1	X2	Y2	Z2	X3	Y3	Z3	X4	Y4	Z4	X5	Y5	Z5	X6	Y6	Z6	X7	Y7	Z7	X8	Y8	Z8	X9	Y9	Z9	X10	Y10	Z10	X11	Y11	Z11	X12	Y12	Z12	X13	Y13	Z13	X14	Y14	Z14	X15	Y15	Z15	X16	Y16	Z16	X17	Y17	Z17	X18	Y18	Z18	X19	Y19	Z19	X20	Y20	Z20	X21	Y21	Z21	X22	Y22	Z22
39	1.3	-2.1128695789431733	0.8471219117511639	0.37085980367834276	-2.069493212309507	0.8317097734410968	0.4630740302766279	-1.976509977586415	0.488834793406562	0.4463299876516707	-2.009908589906848	0.10251219098633892	0.433271951461796	-1.8075018023707918	0.015342833870838556	0.4281857742445915	-1.848745331357768	0.007559020362019797	0.502496552604293	-2.076297047919601	0.02046659748217451	0.41949217005365624	-2.1318241056259803	0.8283862116224575	0.27575857914505403	-2.078891891258857	0.4615332330044266	0.269300534458015	-2.405779321827741	0.18551369332076043	0.2840489636460269	-2.330158815658563	-0.006681697801691833	0.28391220601386224	-2.3700395891909474	0.01698316200784212	0.23629451537365886	-2.48508728302206	0.17031879195150856	0.291220179982263	-2.1199851265685985	1.526360661496158	0.3398090021821923	-2.0595092756887494	1.7924612173931949	0.3619174062987726	-1.9724749917817859	1.6525748394214657	0.3583969932996464	-2.1412720267922123	1.4135129369597388	0.5267995516799263	-2.1144343713035463	1.0935687276473807	0.6016618573378193	-2.09958941054363	0.8472317732248396	0.6387754615176573	-2.1717765073358115	1.432158817755083	0.14097121249244285	-2.146725263502142	1.1050922627683186	0.11459126275660855	-2.0756998601792565	0.8546974586698961	0.11328655232387035
40	1.3333333333333333	-2.0866742453776674	0.851878090785976	0.37276757619349765	-2.0499171807916374	0.8338065558995382	0.46554188546962155	-1.9721663603320951	0.4812523011067885	0.45384742817905915	-2.012155416394058	0.1015459348676681	0.4353018107210702	-1.8116116891687752	0.012655997567295532	0.43165329277172154	-1.8483028721704775	0.006266893446510809	0.5043416542598126	-2.078154558778559	0.019891267254842828	0.4206168162065748	-2.0994775629912703	0.8337259050798469	0.27716019052003105	-2.012406353638022	0.47258425132188836	0.2711207889397798	-2.3446417345988024	0.20099436166255774	0.29246755575988376	-2.2759522700387684	0.0005292510321803445	0.28638458172832465	-2.316270164730062	0.02780352515255118	0.23836687547905225	-2.424646485507775	0.19069872608186836	0.29557160605880806	-2.0939277906410982	1.532729903472481	0.34608467144846555	-2.0332340652376537	1.797073453591552	0.36922265851650693	-1.9467793098031692	1.658140716474227	0.36462089852891855	-2.1126497769123844	1.4185302391509014	0.5334295403832203	-2.0798170039906876	1.0983784770818188	0.6071680002600469	-2.0435309822014758	0.8532238902870805	0.6427041005486224	-2.14795150120932	1.4392672951712866	0.14656895334222078	-2.1295144499069876	1.1134055220179897	0.11501836452380221	-2.053533375966645	0.8608326087826411	0.11736769437567215
41	1.3666666666666667	-2.0614348444104293	0.8568108597856726	0.37455115752377427	-2.0316153784711926	0.8357964886740742	0.46755347184732904	-1.9709464021777754	0.4751075264227175	0.4601853687259882	-2.014293362395781	0.10159058021946059	0.4370262970947292	-1.815123716362854	0.010780739429525921	0.4356879302936738	-1.849737984460863	0.004962991804232954	0.5065161170013638	-2.078388070822009	0.020853660673427577	0.42235881779737816	-2.0675664031799474	0.8393693995473849	0.2775091226163317	-1.944753628772883	0.48731496082296516	0.27449330471118694	-2.2741100839741764	0.21068137931041203	0.3001795750118467	-2.200358062178627	0.008898830119854881	0.29028189148102423	-2.243073125500211	0.037211267834257766	0.2407833993258502	-2.3531016597130425	0.19927523208604037	0.3007265951000194	-2.0670690446157396	1.5392019093713116	0.3516602429261797	-2.0077393375979264	1.8011611578087698	0.3755990014076529	-1.9198964011963298	1.6629852247605983	0.36885949230973825	-2.0845884883862844	1.4239966127774346	0.5392963634884109	-2.0421725596251195	1.1030914425468163	0.6140287023010964	-1.98569781862277	0.8604407861559151	0.6455567801228995	-2.1238062545535534	1.445580389001383	0.1516151683937286	-2.1112539751351793	1.119375127223616	0.11737895667737429	-2.03205273677232	0.8666104915211881	0.12054574736395164
42	1.4	-2.0362812701805173	0.8616476281268413	0.3768226579431407	-2.0132606123765138	0.8378406721646678	0.46957149327463993	-1.9720021826486764	0.4713693238995904	0.4640303125090754	-2.015683843997921	0.10234611016152868	0.4383702236952462	-1.8181044404177078	0.00945185545245897	0.43941457812268925	-1.853381047194761	0.0035996872492571044	0.5089425132938286	-2.076338644240923	0.023170654622945496	0.4249885871576153	-2.03562635578722	0.8451190141615027	0.27744884602211894	-1.8791659712127289	0.5041756225980086	0.27884040866116877	-2.1944023874161065	0.2130588800985385	0.3061689576538598	-2.1051738670379923	0.017503867835508027	0.29484628352831294	-2.1512786243383863	0.043919635581485976	0.24299891354642453	-2.2710353730388535	0.19445446062372038	0.3063092551704542	-2.039431112498	1.5450529331664569	0.3563251317196253	-1.9824449136071982	1.8045782008462459	0.3801043360073652	-1.8916064719171968	1.6664153492772122	0.37055117828059825	-2.056946508448384	1.4295668068527325	0.5444540385720047	-2.0023573737545792	1.1081203213409623	0.6209506233634777	-1.9271646888170557	0.8691883812953106	0.6475706096539114	-2.0991092234113182	1.4502769518131342	0.1559526500860185	-2.090983154391898	1.1222148977775293	0.1218658772378925	-2.0110135329791863	0.8714232179832178	0.12286649393767182
43	1.4333333333333331	-2.0107593620220237	0.8660329457464372	0.3798165055039841	-1.9942474327051134	0.8399289462706827	0.4717705628745683	-1.9739626998598199	0.47017078579827	0.46513094012159684	-2.016275177934066	0.10287276694093352	0.4388429448289819	-1.8211813939367534	0.008262240333644495	0.44237147821211725	-1.8584299088729481	0.0023797840765895505	0.5110794155325349	-2.072501972472446	0.02552381150626481	0.42824342294658035	-2.0033504387522876	0.8505137201212875	0.27754140505716657	-1.8190759696113992	0.5208412665885674	0.28299885276878894	-2.106122482871076	0.2079242405983216	0.3100718041914904	-1.9946776261824006	0.025472971301472483	0.29921254962350025	-2.043883512431719	0.047278122056743394	0.24447877707570398	-2.1795357573339342	0.17713787982279242	0.3118997386230586	-2.011160419021014	1.5496254516374244	0.360023884398375	-1.956962164734917	1.8070125493654847	0.38219948191872244	-1.8622205475441944	1.6681396186449258	0.36999677097434	-2.029138296162869	1.4347241987505674	0.5489569440939385	-1.961633840410148	1.1136532421521386	0.6265743642980263	-1.8688645045001089	0.879298218747103	0.648761109573856	-2.0736221973766984	1.4530015099593705	0.15948971973766182	-2.068721037213085	1.122861094035212	0.12638011106209307	-1.9894195348364982	0.8749496050388494	0.12451773564697287
44	1.4666666666666666	-1.9846341412792412	0.8694491555257657	0.3834314992629767	-1.9742541061286194	0.8416848674273361	0.4741543837469671	-1.9753285635467	0.4707229968482706	0.4642762249159614	-2.0163339865003995	0.1020982107906441	0.4378391933405752	-1.8249432116984097	0.006881928732408544	0.44431032362024686	-1.8633361724192332	0.0015841851568864848	0.5118986834951473	-2.0686925248141317	0.025857255201714766	0.43124215080613154	-1.9706374941114349	0.8547817851929553	0.2781386921450221	-1.7669707345564907	0.5348277661714753	0.2861586530403039	-2.0105046080269258	0.19697857334869928	0.311859384248618	-1.8740342156243868	0.032951503034647875	0.3020936697588247	-1.9249315576454005	0.048142839379256445	0.24442275304187727	-2.080195462517285	0.1509792645272584	0.31663359480296555	-1.9823983132006544	1.5525541211158655	0.3629103710449465	-1.9313275572057451	1.808092589774911	0.38169024560583403	-1.832259764607992	1.668266673155545	0.36803336447327734	-2.00046793503536	1.4388222213422206	0.5527098038566295	-1.9209081579765594	1.1192922905218232	0.63029474673952	-1.8114611017652928	0.8899557710209032	0.6489120286543273	-2.0470163717304435	1.4538351347867797	0.16235225962668995	-2.0449331472630528	1.1231225795684467	0.1284621513054237	-1.9663184015042332	0.8769164111332651	0.12567920106989544
